<svg xmlns="http://www.w3.org/2000/svg" width="80" height="80" viewBox="0 0 80 80">
  <g id="Group_4" data-name="Group 4" transform="translate(-1941 -1264)">
    <rect id="Rectangle_6" data-name="Rectangle 6" width="80" height="80" transform="translate(1941 1264)" fill="none"/>
    <path id="Path_26" data-name="Path 26" d="M208.143,25.04c5.452-1.339,15.674-9.832,19.3-12.52.516-.378.805-.634.981-.736h0a1.1,1.1,0,0,1,1.528.266,2.339,2.339,0,0,1,.206,1.4v.613c0,4.088-.971,7.757-4.646,10.22-10.119,6.776-13.939,10.22-17.677,10.292s-7.579-3.332-17.966-10.3c-3.676-2.5-4.605-6.2-4.657-10.22V13.44a2.451,2.451,0,0,1,.217-1.4,1.091,1.091,0,0,1,1.518-.266h0c.176.092.454.358.981.736,3.634,2.688,13.846,11.181,19.3,12.52a1.261,1.261,0,0,0,.9,0" transform="translate(1773.813 1309.423)" fill="#a7a9ac"/>
  </g>
</svg>
