<svg xmlns="http://www.w3.org/2000/svg" width="45" height="46" viewBox="0 0 45 46">
  <g id="Group_3" data-name="Group 3" transform="translate(-1859 -1257)">
    <rect id="Rectangle_5" data-name="Rectangle 5" width="45" height="46" transform="translate(1859 1257)" fill="none"/>
    <path id="Path_25" data-name="Path 25" d="M208.143,38.3c5.452-1.339,15.674-9.836,19.3-12.526.516-.378.805-.634.981-.736h0a1.1,1.1,0,0,1,1.528.266,2.341,2.341,0,0,1,.206,1.4v.6c0,4.09-.971,7.761-4.646,10.225-10.119,6.789-13.939,10.225-17.677,10.3s-7.579-3.395-17.966-10.307c-3.676-2.505-4.605-6.207-4.657-10.225v-.6a2.453,2.453,0,0,1,.217-1.4,1.091,1.091,0,0,1,1.518-.266h0c.176.092.454.358.981.736,3.634,2.689,13.846,11.186,19.3,12.526a1.261,1.261,0,0,0,.9,0" transform="translate(1673.813 1255.173)" fill="#a7a9ac"/>
  </g>
</svg>
