<?xml version="1.0" encoding="UTF-8"?>
<svg xmlns="http://www.w3.org/2000/svg" width="228.76" height="49.72" viewBox="0 0 228.76 49.72">
    <defs>
        <style>.cls-1{fill:#000;}.cls-2{fill:#000;fill-rule:evenodd;}</style>
    </defs>
    <title>Asset 7</title>
    <g id="Layer_2" data-name="Layer 2">
        <g id="Layer_1-2" data-name="Layer 1">
            <path class="cls-1"
                  d="M118.12,46.31l-.71-.33a2.92,2.92,0,0,1-.59-.34.54.54,0,0,1-.24-.44,1,1,0,0,1,.14-.46,2,2,0,0,1,.36-.46,2,2,0,0,1,.5-.36,1.23,1.23,0,0,1,.55-.14,1.18,1.18,0,0,1,.42.08l.39.17.36-.69a2.27,2.27,0,0,0-.48-.25,1.8,1.8,0,0,0-.68-.13,1.85,1.85,0,0,0-.86.21,2.73,2.73,0,0,0-.76.56,3,3,0,0,0-.54.76,1.8,1.8,0,0,0-.2.81A1,1,0,0,0,116,46a1.87,1.87,0,0,0,.59.45q.35.18.7.31a3.42,3.42,0,0,1,.59.29.43.43,0,0,1,.24.36.83.83,0,0,1-.18.44,2.15,2.15,0,0,1-.52.5,2.91,2.91,0,0,1-.84.4,3.73,3.73,0,0,1-1.14.16,2.38,2.38,0,0,1-1.43-.4,1.35,1.35,0,0,1-.54-1.16,2.89,2.89,0,0,1,.1-.76,6,6,0,0,1,.31-.88l-.68-.29a5.28,5.28,0,0,0-.44,1.2,4.4,4.4,0,0,0-.1.84,2,2,0,0,0,1.31,2,3.69,3.69,0,0,0,1.41.25,4.35,4.35,0,0,0,1.54-.25,3.75,3.75,0,0,0,1.12-.64,2.85,2.85,0,0,0,.68-.81,1.61,1.61,0,0,0,.23-.77.74.74,0,0,0-.24-.55A2.12,2.12,0,0,0,118.12,46.31Z"></path>
            <path class="cls-1"
                  d="M121.2,43.78l-.77.39a7.94,7.94,0,0,1,.56,1.17,2.66,2.66,0,0,1,.17.9,2.59,2.59,0,0,1-.2,1,2.89,2.89,0,0,1-.66,1,4.38,4.38,0,0,1-1.23.84l.41.71a4.61,4.61,0,0,0,1.2-.81,4.2,4.2,0,0,0,.91-1.22,3.32,3.32,0,0,0,.34-1.5,4.15,4.15,0,0,0-.17-1.1A6,6,0,0,0,121.2,43.78Z"></path>
            <path class="cls-1"
                  d="M120.88,42.58a.47.47,0,0,0,.34-.15.48.48,0,0,0,.15-.34.51.51,0,0,0-.15-.35.45.45,0,0,0-.34-.16.48.48,0,0,0-.37.16.51.51,0,0,0-.14.35.48.48,0,0,0,.14.34A.5.5,0,0,0,120.88,42.58Z"></path>
            <path class="cls-1"
                  d="M124.35,43.78l-.77.39a7.91,7.91,0,0,1,.56,1.17,2.68,2.68,0,0,1,.17.9,2.65,2.65,0,0,1-.2,1,3,3,0,0,1-.66,1,4.45,4.45,0,0,1-1.23.84l.41.71a4.56,4.56,0,0,0,1.2-.81,4.15,4.15,0,0,0,.91-1.22,3.31,3.31,0,0,0,.34-1.5,4.12,4.12,0,0,0-.17-1.1A6.12,6.12,0,0,0,124.35,43.78Z"></path>
            <path class="cls-1"
                  d="M128.65,44.14a1.12,1.12,0,0,0-.84-.34,1.19,1.19,0,0,0-.84.33,2.24,2.24,0,0,0-.55.84,2.86,2.86,0,0,0-.2,1.06,1.37,1.37,0,0,0,.36.95,1.53,1.53,0,0,0,1.19.4l.3,0,.3-.06a2.2,2.2,0,0,1-.8,1,4.34,4.34,0,0,1-1.64.65l.23.75a4,4,0,0,0,2.36-1.19,3.3,3.3,0,0,0,.79-2.29,4.3,4.3,0,0,0-.16-1.19A2.11,2.11,0,0,0,128.65,44.14Zm-.13,2.36a2.09,2.09,0,0,1-.67.11,1.08,1.08,0,0,1-.63-.16.63.63,0,0,1-.23-.56,1.79,1.79,0,0,1,.22-.92.62.62,0,0,1,.51-.37.52.52,0,0,1,.44.24,1.8,1.8,0,0,1,.26.64,3.63,3.63,0,0,1,.09.84Z"></path>
            <path class="cls-1"
                  d="M136.51,41.63a.5.5,0,0,0,.49-.49.5.5,0,0,0-.15-.36.45.45,0,0,0-.34-.16.52.52,0,0,0-.51.51.46.46,0,0,0,.15.34A.51.51,0,0,0,136.51,41.63Z"></path>
            <path class="cls-1"
                  d="M135.83,42.77a.47.47,0,0,0,.34-.15.48.48,0,0,0,.15-.34.51.51,0,0,0-.15-.35.45.45,0,0,0-.34-.16.49.49,0,0,0-.37.16.51.51,0,0,0-.14.35.48.48,0,0,0,.14.34A.51.51,0,0,0,135.83,42.77Z"></path>
            <path class="cls-1"
                  d="M136.69,42.28a.48.48,0,0,0,.14.34.49.49,0,0,0,.36.15.47.47,0,0,0,.35-.15.49.49,0,0,0,.14-.34.52.52,0,0,0-.14-.35.45.45,0,0,0-.35-.16.47.47,0,0,0-.36.16A.51.51,0,0,0,136.69,42.28Z"></path>
            <path class="cls-1"
                  d="M142.52,41.41l1.31-.7-.37-.67q-.95.51-1.54.86a10.29,10.29,0,0,0-.93.6,2.94,2.94,0,0,0-.49.42.66.66,0,0,0-.15.37,2.53,2.53,0,0,0,0,.46c0,.05,0,.13.14.23l.43.43c.19.19.44.45.75.78a2.43,2.43,0,0,1,.8,1.54,1,1,0,0,1-.09.42.64.64,0,0,1-.38.31,2.61,2.61,0,0,1-.89.11h-.84a.8.8,0,0,1-.64-.25,1.78,1.78,0,0,1-.33-.87q-.1-.62-.18-1.75l-.74.05c.06.43.09.79.1,1.07s0,.55,0,.78a1,1,0,0,1-.22.76.92.92,0,0,1-.61.19,1.48,1.48,0,0,1-.52-.07.34.34,0,0,1-.21-.2,1,1,0,0,1,0-.34,3.56,3.56,0,0,1,0-.45L137,45l.07-.46-.73-.13c-.07.51-.15.92-.21,1.22a2.5,2.5,0,0,1-.22.65.58.58,0,0,1-.28.27,1.09,1.09,0,0,1-.4.06,1.2,1.2,0,0,1-.5-.08.36.36,0,0,1-.2-.22,1.11,1.11,0,0,1,0-.31,2.87,2.87,0,0,1,.09-.68l.15-.65-.71-.2c-.11.5-.21.89-.29,1.18a2.48,2.48,0,0,1-.26.63.6.6,0,0,1-.33.26,1.71,1.71,0,0,1-.49.06h0a1.64,1.64,0,0,1-.71-.12.67.67,0,0,1-.33-.41,3.17,3.17,0,0,1-.11-.8l-.2-5.23h-.8l.2,5.56a2,2,0,0,0,.44,1.37,1.92,1.92,0,0,0,1.41.43h0a3.21,3.21,0,0,0,.89-.1,1,1,0,0,0,.6-.52.79.79,0,0,0,.47.51,2,2,0,0,0,.65.11,2.26,2.26,0,0,0,.83-.13,1.06,1.06,0,0,0,.52-.49,1.1,1.1,0,0,0,1.16.62,1.74,1.74,0,0,0,.71-.16,1.06,1.06,0,0,0,.54-.6,1.23,1.23,0,0,0,1.26.76h.81a3.78,3.78,0,0,0,1.13-.14,1.75,1.75,0,0,0,.68-.37,1.24,1.24,0,0,0,.34-.51,1.63,1.63,0,0,0,.1-.54,2.27,2.27,0,0,0-.2-.94,4.07,4.07,0,0,0-.52-.87,9.07,9.07,0,0,0-.71-.81l-.76-.79a8,8,0,0,1,.66-.46C141.88,41.77,142.17,41.6,142.52,41.41Z"></path>
            <path class="cls-1"
                  d="M150,43.1a.5.5,0,0,0,.49-.49.5.5,0,0,0-.15-.35.45.45,0,0,0-.34-.16.53.53,0,0,0-.51.51.46.46,0,0,0,.15.34A.51.51,0,0,0,150,43.1Z"></path>
            <path class="cls-1"
                  d="M151.32,43.1a.47.47,0,0,0,.35-.15.49.49,0,0,0,.14-.34.52.52,0,0,0-.14-.35.45.45,0,0,0-.35-.16.47.47,0,0,0-.36.16.51.51,0,0,0-.14.35A.48.48,0,0,0,151,43,.49.49,0,0,0,151.32,43.1Z"></path>
            <path class="cls-1"
                  d="M158.73,45.8a2.27,2.27,0,0,0-.2-.94A4.07,4.07,0,0,0,158,44a9.1,9.1,0,0,0-.71-.81l-.76-.79a8,8,0,0,1,.66-.46c.24-.15.53-.33.88-.52l1.31-.7L159,40q-.95.51-1.54.86a10.33,10.33,0,0,0-.93.6,3,3,0,0,0-.49.42.66.66,0,0,0-.15.37,2.55,2.55,0,0,0,0,.46c0,.05,0,.13.14.23l.43.43c.19.19.44.45.75.78a2.43,2.43,0,0,1,.8,1.54,1,1,0,0,1-.09.42.64.64,0,0,1-.38.31,2.61,2.61,0,0,1-.89.11h-.85a2.31,2.31,0,0,1-.73-.09.65.65,0,0,1-.34-.22.5.5,0,0,1-.09-.26,1.15,1.15,0,0,1,0-.26,3,3,0,0,1,.15-.42l-.64-.34A3.1,3.1,0,0,1,153,46.08a4.75,4.75,0,0,1-1.45.52,8.44,8.44,0,0,1-1.51.14,5.59,5.59,0,0,1-1.51-.16,1.41,1.41,0,0,1-.77-.46,1.22,1.22,0,0,1-.22-.75,2.62,2.62,0,0,1,0-.45c0-.17.07-.33.1-.48s.07-.28.1-.38l-.73-.21c-.07.26-.15.55-.21.85a4.07,4.07,0,0,0-.1.85,1.67,1.67,0,0,0,.41,1.18,2.25,2.25,0,0,0,1.1.62,5.91,5.91,0,0,0,1.53.18,11.19,11.19,0,0,0,1.51-.1,6.9,6.9,0,0,0,1.46-.36,3.55,3.55,0,0,0,1.18-.69.82.82,0,0,0,.27.57,1.5,1.5,0,0,0,.63.32,3.48,3.48,0,0,0,.84.1h.82a3.78,3.78,0,0,0,1.13-.14,1.75,1.75,0,0,0,.68-.37,1.24,1.24,0,0,0,.34-.51A1.63,1.63,0,0,0,158.73,45.8Z"></path>
            <path class="cls-1"
                  d="M171.11,41.63a.5.5,0,0,0,.49-.49.5.5,0,0,0-.15-.36.45.45,0,0,0-.34-.16.52.52,0,0,0-.51.51.46.46,0,0,0,.15.34A.51.51,0,0,0,171.11,41.63Z"></path>
            <path class="cls-1"
                  d="M171.29,42.28a.48.48,0,0,0,.14.34.49.49,0,0,0,.36.15.47.47,0,0,0,.35-.15.49.49,0,0,0,.14-.34.51.51,0,0,0-.14-.35.45.45,0,0,0-.35-.16.47.47,0,0,0-.36.16A.51.51,0,0,0,171.29,42.28Z"></path>
            <path class="cls-1"
                  d="M170.43,42.77a.47.47,0,0,0,.34-.15.48.48,0,0,0,.15-.34.51.51,0,0,0-.15-.35.45.45,0,0,0-.34-.16.49.49,0,0,0-.37.16.51.51,0,0,0-.14.35.48.48,0,0,0,.14.34A.51.51,0,0,0,170.43,42.77Z"></path>
            <path class="cls-1"
                  d="M173.81,44.75c-.06-.29-.13-.58-.22-.87s-.17-.54-.26-.76l-.79.3c.15.41.29.8.41,1.19a3.62,3.62,0,0,1,.18,1c0,.62-.3.93-.9.93a.81.81,0,0,1-.64-.19.71.71,0,0,1-.15-.44,3.86,3.86,0,0,1,0-.44c0-.18,0-.36.08-.54s.06-.33.08-.46l-.73-.13c-.07.51-.15.92-.21,1.22a2.75,2.75,0,0,1-.21.65.56.56,0,0,1-.28.27,1.1,1.1,0,0,1-.4.06.85.85,0,0,1-.63-.16.64.64,0,0,1-.12-.45,3.14,3.14,0,0,1,.07-.57c0-.19.1-.44.17-.74l-.71-.2c-.11.5-.21.89-.29,1.18a2.29,2.29,0,0,1-.26.63.61.61,0,0,1-.35.26,2,2,0,0,1-.54.06h-4.78a.76.76,0,0,1-.52-.18,1.48,1.48,0,0,1-.36-.72c-.07-.26-.17-.56-.28-.88a10,10,0,0,0-.45-1l-.77.39a9.34,9.34,0,0,1,.53,1.13,2.82,2.82,0,0,1,.2,1,2.51,2.51,0,0,1-.17.83,2.88,2.88,0,0,1-.61,1,4.57,4.57,0,0,1-1.3.93l.41.72a4.62,4.62,0,0,0,1-.67,4.28,4.28,0,0,0,.83-.94,3.41,3.41,0,0,0,.48-1.13,1.05,1.05,0,0,0,.87.38H167a3.5,3.5,0,0,0,.94-.1,1.09,1.09,0,0,0,.62-.52.78.78,0,0,0,.45.51,1.86,1.86,0,0,0,.66.12,2.33,2.33,0,0,0,.82-.12,1.08,1.08,0,0,0,.53-.51,1.1,1.1,0,0,0,1.16.63,1.66,1.66,0,0,0,1.22-.45,1.81,1.81,0,0,0,.46-1.35A4.16,4.16,0,0,0,173.81,44.75Z"></path>
            <path class="cls-1"
                  d="M12.13,22.11a3.08,3.08,0,0,0,2.27-.83,2.77,2.77,0,0,0,.83-2,2.71,2.71,0,0,0-.89-2.1,3.15,3.15,0,0,0-2.21-.82,3.13,3.13,0,0,0-2.21.82A2.7,2.7,0,0,0,9,19.24a2.74,2.74,0,0,0,.85,2A3.07,3.07,0,0,0,12.13,22.11Z"></path>
            <path class="cls-1"
                  d="M39.4,18.31a2.44,2.44,0,0,0-1.29-.85,6.79,6.79,0,0,0-1.65-.19,12.49,12.49,0,0,0-1.43.09,12.76,12.76,0,0,0-1.55.29c.05.6.1,1.4.15,2.38s.07,2.12.07,3.4a6.75,6.75,0,0,1-1.08,4,3.52,3.52,0,0,1-3,1.47H28.08a3.41,3.41,0,0,1-3.21-1.55c0-.66,0-1.33,0-2s-.07-1.37-.11-2c-.05-.86-.12-1.61-.21-2.27A4.56,4.56,0,0,0,24,19.42a2.57,2.57,0,0,0-1.19-1A5.4,5.4,0,0,0,20.6,18a7.89,7.89,0,0,0-1.51.17,10,10,0,0,0-1.4.36c.08.58.14,1.35.19,2.3s.1,2,.13,3.14.07,2.32.09,3.56,0,2.39,0,3.48a12,12,0,0,1-.42,3.44,5.67,5.67,0,0,1-1.15,2.17,4,4,0,0,1-1.7,1.13,6.61,6.61,0,0,1-2.1.32,7.17,7.17,0,0,1-2.42-.4,4,4,0,0,1-1.85-1.42,7.48,7.48,0,0,1-1.18-2.76,19.21,19.21,0,0,1-.42-4.38V28.06c0-.44,0-.9,0-1.38s0-.93,0-1.36,0-.77,0-1A6.82,6.82,0,0,0,5.73,24a9.9,9.9,0,0,0-1.42-.11,6.31,6.31,0,0,0-1.77.23A2.73,2.73,0,0,0,1.17,25,4.76,4.76,0,0,0,.3,27,15.83,15.83,0,0,0,0,30.46q0,6.69,3.21,10t9.22,3.34a18.93,18.93,0,0,0,4.86-.57A9.83,9.83,0,0,0,21,41.46a9.18,9.18,0,0,0,2.49-3.21,14.67,14.67,0,0,0,1.25-4.76,4.19,4.19,0,0,0,1.21.55,6.41,6.41,0,0,0,1.74.21h2.8a9.71,9.71,0,0,0,7.39-2.8q2.67-2.79,2.67-8a15,15,0,0,0-.28-3.27A4.6,4.6,0,0,0,39.4,18.31Z"></path>
            <path class="cls-1"
                  d="M36,36.58a3.05,3.05,0,0,0-2.16.81,2.76,2.76,0,0,0-.87,2.1,2.79,2.79,0,0,0,.83,2,3.36,3.36,0,0,0,4.42,0,2.86,2.86,0,0,0,.79-2,2.78,2.78,0,0,0-.85-2.1A3,3,0,0,0,36,36.58Z"></path>
            <path class="cls-1"
                  d="M28.84,36.58a3,3,0,0,0-2.16.81,2.76,2.76,0,0,0-.87,2.1,2.79,2.79,0,0,0,.83,2,3,3,0,0,0,2.19.83,2.94,2.94,0,0,0,2.23-.83,2.85,2.85,0,0,0,.79-2A2.77,2.77,0,0,0,31,37.4,3,3,0,0,0,28.84,36.58Z"></path>
            <path class="cls-1"
                  d="M65,17.67a3.07,3.07,0,0,0,2.27-.83,2.77,2.77,0,0,0,.83-2,2.7,2.7,0,0,0-.89-2.1,3.41,3.41,0,0,0-4.42,0,2.9,2.9,0,0,0,0,4.14A3.09,3.09,0,0,0,65,17.67Z"></path>
            <path class="cls-1"
                  d="M75.53,18.31a2.46,2.46,0,0,0-1.28-.85,6.81,6.81,0,0,0-1.65-.19,12.62,12.62,0,0,0-1.43.09,12.79,12.79,0,0,0-1.55.28c.05.6.1,1.4.15,2.38s.07,2.12.07,3.4a6.73,6.73,0,0,1-1.08,4,3.52,3.52,0,0,1-3,1.47H62.25c0-.13,0-.26,0-.4s0-.28,0-.44q0-5.52-2.46-8.45A8.49,8.49,0,0,0,53,16.74a10.74,10.74,0,0,0-3.75.64,8.61,8.61,0,0,0-3,1.85,8.45,8.45,0,0,0-2,2.95,10.3,10.3,0,0,0-.72,4,8.14,8.14,0,0,0,.76,3.65,6.84,6.84,0,0,0,2.08,2.51,9,9,0,0,0,3.12,1.46,15.34,15.34,0,0,0,3.91.47h1.77Q53.74,38,47.24,38H46a5.11,5.11,0,0,0-.49,2.23,4.12,4.12,0,0,0,.15,1.17,2.47,2.47,0,0,0,.51.95,2.33,2.33,0,0,0,1,.64,4.5,4.5,0,0,0,1.55.23,17.46,17.46,0,0,0,4-.47,12.33,12.33,0,0,0,3.68-1.53,11.24,11.24,0,0,0,3-2.78,13.33,13.33,0,0,0,2.06-4.21h5.1A9.7,9.7,0,0,0,74,31.44q2.66-2.79,2.66-8a15,15,0,0,0-.28-3.27A4.57,4.57,0,0,0,75.53,18.31Zm-19.94,10a6.66,6.66,0,0,1-.11.91H54.23a5.17,5.17,0,0,1-3-.76,2.9,2.9,0,0,1-1.06-2.54A3.9,3.9,0,0,1,51,23.13a2.77,2.77,0,0,1,2.08-.87,2.38,2.38,0,0,1,1,.21,2,2,0,0,1,.83.76,4.51,4.51,0,0,1,.57,1.51,12.44,12.44,0,0,1,.21,2.51C55.63,27.57,55.62,27.92,55.59,28.27Z"></path>
            <path class="cls-1"
                  d="M142.83,18.46A8.35,8.35,0,0,0,140,16.94a11.94,11.94,0,0,0-3.54-.51,15.4,15.4,0,0,0-6.06,1.13,20.54,20.54,0,0,0-4.93,3,5.91,5.91,0,0,0-.53-1.7,3,3,0,0,0-.82-1,2.52,2.52,0,0,0-1.06-.47,7.21,7.21,0,0,0-1.3-.11,12.09,12.09,0,0,0-1.44.1,12.31,12.31,0,0,0-1.55.28c.05.6.1,1.4.15,2.38s.07,2.12.07,3.4a6.53,6.53,0,0,1-1.08,4,3.74,3.74,0,0,1-3,1.51h-1.51a15.52,15.52,0,0,1-1.65-.1,2.84,2.84,0,0,1-1.57-.62V14.17a3.41,3.41,0,0,0-.28-1.49,2.1,2.1,0,0,0-.76-.89,3.06,3.06,0,0,0-1.14-.42,8.74,8.74,0,0,0-1.46-.11,13.51,13.51,0,0,0-1.73.11c-.58.07-1,.14-1.29.19v20.6a7.84,7.84,0,0,1-.41,2.7,4.9,4.9,0,0,1-1.16,1.84,4.47,4.47,0,0,1-1.7,1.06,6.26,6.26,0,0,1-2.1.34,7.12,7.12,0,0,1-2.42-.4,4,4,0,0,1-1.85-1.42,7.44,7.44,0,0,1-1.17-2.76,19.22,19.22,0,0,1-.42-4.38V28.06c0-.44,0-.9,0-1.38s0-.93,0-1.36,0-.77,0-1A6.57,6.57,0,0,0,91.1,24a9.83,9.83,0,0,0-1.42-.11,6.34,6.34,0,0,0-1.78.23,2.7,2.7,0,0,0-1.36.91,4.73,4.73,0,0,0-.87,2,15.78,15.78,0,0,0-.3,3.46q0,6.69,3.21,10t9.22,3.34q5.63,0,8.69-2.44t3.56-7.77a6.49,6.49,0,0,0,1.9.49,20.69,20.69,0,0,0,2.14.11h1.63a9.9,9.9,0,0,0,6.43-2,21.18,21.18,0,0,0,4.27,1.42,24.53,24.53,0,0,0,5.41.55,21.18,21.18,0,0,0,5.69-.7,12.88,12.88,0,0,0,4.27-2,9,9,0,0,0,2.7-3.14,8.72,8.72,0,0,0,.95-4.06,7.82,7.82,0,0,0-.7-3.4A7.11,7.11,0,0,0,142.83,18.46Zm-5,7.88a5.5,5.5,0,0,1-1.8,1.32,9.86,9.86,0,0,1-2.48.79,14.49,14.49,0,0,1-2.74.27,17.81,17.81,0,0,1-3.46-.3,12.52,12.52,0,0,1-2.4-.68,17,17,0,0,1,2.31-2.31,18.51,18.51,0,0,1,2.64-1.83,13.47,13.47,0,0,1,2.72-1.19,8.8,8.8,0,0,1,2.57-.42,4.65,4.65,0,0,1,2.35.57,2,2,0,0,1,1,1.93A2.7,2.7,0,0,1,137.82,26.34Z"></path>
            <path class="cls-1"
                  d="M176.26,24.6a14,14,0,0,0-2.78-4.17,13.5,13.5,0,0,0-4-2.86,11.09,11.09,0,0,0-4.73-1.06,5.16,5.16,0,0,0-3.17.83,2.73,2.73,0,0,0-1.1,2.31,4.73,4.73,0,0,0,.21,1.49,4.82,4.82,0,0,0,.47,1H162a10.12,10.12,0,0,1,3.14.49,8.6,8.6,0,0,1,2.65,1.38,6.92,6.92,0,0,1,1.81,2.13,6,6,0,0,1,.72,2.76H159.68a4.35,4.35,0,0,1-3-1.06,4.38,4.38,0,0,1-1.19-3.44V14.17a3.42,3.42,0,0,0-.29-1.49,2.11,2.11,0,0,0-.75-.89,3,3,0,0,0-1.14-.41,8.75,8.75,0,0,0-1.46-.11,13.56,13.56,0,0,0-1.74.11c-.58.07-1,.14-1.28.19V24.07q0,5.33,2.68,7.75t8.09,2.42h16.52a7.9,7.9,0,0,0,.85-2,9.8,9.8,0,0,0,.32-2.61A12.38,12.38,0,0,0,176.26,24.6Z"></path>
            <path class="cls-1"
                  d="M207.42,38c5.28-1.31,15.18-9.62,18.69-12.25.5-.37.78-.62.95-.72l0,0a1.06,1.06,0,0,1,1.48.26,2.31,2.31,0,0,1,.2,1.37c0,.19,0,.4,0,.59,0,4-.94,7.59-4.5,10-9.8,6.64-13.5,10-17.12,10.07S199.78,44,189.72,37.24c-3.56-2.45-4.46-6.07-4.51-10,0-.2,0-.4,0-.59a2.42,2.42,0,0,1,.21-1.37,1.05,1.05,0,0,1,1.47-.26l0,0c.17.09.44.35.95.72,3.52,2.63,13.41,10.94,18.69,12.25a1.21,1.21,0,0,0,.87,0"></path>
            <path class="cls-1"
                  d="M207.42,24.75c5.28-1.31,15.18-9.62,18.69-12.25.5-.37.78-.62.95-.72l0,0a1.06,1.06,0,0,1,1.48.26,2.31,2.31,0,0,1,.2,1.37c0,.2,0,.4,0,.6,0,4-.94,7.59-4.5,10-9.8,6.63-13.5,10-17.12,10.07S199.78,30.82,189.72,24c-3.56-2.45-4.46-6.07-4.51-10,0-.2,0-.4,0-.6a2.42,2.42,0,0,1,.21-1.37,1.05,1.05,0,0,1,1.47-.26l0,0c.17.09.44.35.95.72,3.52,2.63,13.41,10.94,18.69,12.25a1.21,1.21,0,0,0,.87,0"></path>
            <path class="cls-2" d="M216.33,9.35A9.35,9.35,0,1,1,207,0a9.35,9.35,0,0,1,9.35,9.35"></path>
        </g>
    </g>
</svg>